<?xml version="1.0" encoding="UTF-8"?>
<svg id="Braces" xmlns="http://www.w3.org/2000/svg" viewBox="0 0 64 64">
  <defs>
    <style>
      .cls-1 {
        fill: #fff;
      }

      .cls-2 {
        fill: #c1e5f1;
      }

      .cls-3 {
        fill: #bf7246;
      }

      .cls-4 {
        fill: #d9aa90;
      }
    </style>
  </defs>
  <path class="cls-2" d="m43.04,7c-6.44,0-4.6,2.68-11.04,2.68s-4.6-2.68-11.04-2.68c-5.52,0-11.96,5.36-11.96,13.39s6.44,8.93,6.44,16.96c0,10.71,3.68,19.64,6.44,19.64,3.68,0,1.84-20.54,10.12-20.54s6.44,20.54,10.12,20.54c2.76,0,6.44-8.93,6.44-19.64,0-8.04,6.44-8.93,6.44-16.96s-6.44-13.39-11.96-13.39Z"/>
  <rect class="cls-4" x="23" y="19" width="18" height="12" rx="2" ry="2"/>
  <path class="cls-3" d="m3.42,18.17l-.42-.17v5l.42.17c6.35,2.54,12.95,3.83,19.58,3.83v-5c-6.63,0-13.23-1.29-19.58-3.83Z"/>
  <path class="cls-3" d="m60.58,18.17c-6.35,2.54-12.95,3.83-19.58,3.83v5c6.63,0,13.23-1.29,19.58-3.83l.42-.17v-5l-.42.17Z"/>
  <path class="cls-1" d="m28,28c-.55,0-1-.45-1-1v-4c0-.55.45-1,1-1s1,.45,1,1v4c0,.55-.45,1-1,1Z"/>
  <path class="cls-1" d="m36,28c-.55,0-1-.45-1-1v-4c0-.55.45-1,1-1s1,.45,1,1v4c0,.55-.45,1-1,1Z"/>
</svg>