<?xml version="1.0" encoding="UTF-8"?>
<svg id="Cavity" xmlns="http://www.w3.org/2000/svg" viewBox="0 0 64 64">
  <defs>
    <style>
      .cls-1 {
        fill: #168ca6;
      }

      .cls-2 {
        fill: #c1e5f1;
      }
    </style>
  </defs>
  <path class="cls-2" d="m54,26c-1.68,4.9-6.72,6.81-6.72,13.57,0,11.14-3.84,20.43-6.72,20.43-3.84,0-1.92-21.36-10.56-21.36s-6.72,21.36-10.56,21.36c-2.88,0-6.72-9.29-6.72-20.43,0-8.36-6.72-9.28-6.72-17.64s6.72-13.93,12.48-13.93c6.72,0,4.8,2.79,11.52,2.79,5.67,0,5.25-2.17,9-2.79l-1.41,2.82c-.35.7-.21,1.56.34,2.11l1.31,1.31c.47.47.65,1.16.46,1.8l-1.28,4.5c-.24.84.15,1.75.94,2.14.25.13.53.19.81.19.17,0,.35-.02.52-.07l4.62-1.32c.95-.27,1.93.25,2.25,1.19l.15.46c.18.55.61.98,1.16,1.16l5.13,1.71Z"/>
  <path class="cls-1" d="m54,26l-5.13-1.71c-.55-.18-.98-.61-1.16-1.16l-.15-.46c-.32-.94-1.3-1.46-2.25-1.19l-4.62,1.32c-.17.05-.35.07-.52.07-.28,0-.56-.06-.81-.19-.79-.39-1.18-1.3-.94-2.14l1.28-4.5c.19-.64.01-1.33-.46-1.8l-1.31-1.31c-.55-.55-.69-1.41-.34-2.11l1.41-2.82c3.73,2.45,12.37,8.78,15,18Z"/>
  <path class="cls-2" d="m53.71,8.29c-.39-.39-1.02-.39-1.41,0l-3,3c-.39.39-.39,1.02,0,1.41.2.2.45.29.71.29s.51-.1.71-.29l3-3c.39-.39.39-1.02,0-1.41Z"/>
  <path class="cls-2" d="m46.24,4.03c-.54-.14-1.08.19-1.21.73l-1,4c-.13.54.19,1.08.73,1.21.08.02.16.03.24.03.45,0,.86-.3.97-.76l1-4c.13-.54-.19-1.08-.73-1.21Z"/>
  <path class="cls-2" d="m57.24,16.03l-4-1c-.54-.14-1.08.19-1.21.73-.13.54.19,1.08.73,1.21l4,1c.08.02.16.03.24.03.45,0,.86-.3.97-.76.13-.54-.19-1.08-.73-1.21Z"/>
  <path class="cls-1" d="m18.32,49.32l-.13-.13c-.45-.45-.69-1.05-.69-1.66,0-.35.08-.71.25-1.04.17-.32.25-.68.25-1.04v-1.91c0-.93-.56-1.78-1.42-2.15l-3.86-1.65c.02,6.68,1.42,12.68,3.16,16.38l2.44-2.44c.43-.43.68-1.03.68-1.65v-1.06c0-.62-.25-1.22-.68-1.65Z"/>
  <path class="cls-1" d="m24.16,21.01l-5.35-.89-.76-3.05,1.88-4.7c.09-.22.09-.46.02-.69l-1.23-3.68h-.24c-.6,0-1.2.06-1.81.18l1.27,3.79-1.77,4.41-4.79,3.84c-.44.34-.51.97-.16,1.4.2.25.49.38.78.38.22,0,.44-.07.62-.22l3.79-3.03.62,2.49c.1.39.41.68.81.75l6,1s.11.01.16.01c.48,0,.91-.35.99-.84.09-.54-.28-1.06-.83-1.15Z"/>
  <path class="cls-1" d="m44.94,37.64l-1.85-6.47,1.74-2.62c.31-.45.18-1.08-.28-1.38-.46-.31-1.08-.18-1.38.28l-2,3c-.17.24-.21.54-.13.82l1.3,4.57-2.83-1.7c-.33-.2-.74-.19-1.06.03l-3,2c-.46.3-.59.92-.28,1.38.3.46.92.59,1.38.28l2.48-1.65,4.21,2.53,3.62,7.24c.16-1.21.28-2.47.35-3.77l-2.27-4.54Z"/>
</svg>