<?xml version="1.0" encoding="UTF-8"?>
<svg id="Dental_Mirror" data-name="Dental Mirror" xmlns="http://www.w3.org/2000/svg" viewBox="0 0 64 64">
  <defs>
    <style>
      .cls-1 {
        fill: #168ca6;
      }

      .cls-2 {
        fill: #c1e5f1;
      }

      .cls-3 {
        fill: #bf7246;
      }

      .cls-4 {
        fill: #d9aa90;
      }
    </style>
  </defs>
  <circle class="cls-2" cx="49" cy="15" r="9"/>
  <path class="cls-1" d="m56.06,7.94c-1.89-1.89-4.41-2.94-7.09-2.94s-5.2,1.04-7.09,2.94c-3.67,3.67-3.89,9.5-.67,13.44l-7.84,7.84c-.39.39-.39,1.02,0,1.41.2.2.45.29.71.29s.51-.1.71-.29l7.84-7.84c1.84,1.51,4.09,2.26,6.35,2.26,2.57,0,5.14-.98,7.09-2.93s2.94-4.41,2.94-7.09-1.04-5.2-2.94-7.09Zm-1.41,12.77c-3.13,3.13-8.22,3.13-11.35,0-3.13-3.13-3.13-8.22,0-11.35,1.52-1.52,3.53-2.35,5.68-2.35s4.16.83,5.68,2.35,2.35,3.53,2.35,5.68-.83,4.16-2.35,5.68Z"/>
  <polygon class="cls-4" points="34.37 28.21 30.12 29.63 34.37 33.88 35.79 29.63 34.37 28.21"/>
  <rect class="cls-3" x="28.82" y="30.17" width="4.01" height="6.02" transform="translate(-14.43 31.51) rotate(-45)"/>
  <rect class="cls-4" x="19.13" y="35.84" width="12.04" height="6.02" transform="translate(-20.1 29.16) rotate(-45)"/>
  <path class="cls-3" d="m18.77,40.98l-13.47,13.47c-.39.39-.39,1.03,0,1.42l2.84,2.84c.39.39,1.03.39,1.42,0l13.47-13.47-4.26-4.26Z"/>
</svg>