<?xml version="1.0" encoding="UTF-8"?>
<svg id="Dental_Checkup" data-name="Dental Checkup" xmlns="http://www.w3.org/2000/svg" viewBox="0 0 64 64">
  <defs>
    <style>
      .cls-1 {
        fill: #fff;
      }

      .cls-2 {
        fill: #168ca6;
      }

      .cls-3 {
        fill: #c1e5f1;
      }

      .cls-4 {
        fill: #bf7246;
      }

      .cls-5 {
        fill: #d9aa90;
      }
    </style>
  </defs>
  <path class="cls-3" d="m38.52,8c-6.72,0-4.8,2.79-11.52,2.79s-4.8-2.79-11.52-2.79c-5.76,0-12.48,5.57-12.48,13.93s6.72,9.29,6.72,17.64c0,11.14,3.84,20.43,6.72,20.43,3.84,0,1.92-21.36,10.56-21.36s6.72,21.36,10.56,21.36c2.88,0,6.72-9.29,6.72-20.43,0-8.36,6.72-9.29,6.72-17.64s-6.72-13.93-12.48-13.93Z"/>
  <path class="cls-1" d="m49.07,20.95c-3.89-3.89-10.23-3.89-14.13,0-1.89,1.89-2.93,4.4-2.93,7.06s1.04,5.18,2.93,7.06c1.95,1.95,4.5,2.92,7.06,2.92s5.12-.97,7.06-2.92c1.89-1.89,2.93-4.4,2.93-7.06s-1.04-5.18-2.93-7.06Z"/>
  <path class="cls-4" d="m53.34,40.34c-.26,0-.51-.1-.71-.29l-4.25-4.25c-.39-.39-.39-1.02,0-1.41s1.02-.39,1.41,0l4.25,4.25c.39.39.39,1.02,0,1.41-.2.2-.45.29-.71.29Z"/>
  <path class="cls-5" d="m60.42,42.17l-4.25-4.25c-.78-.78-2.05-.78-2.83,0l-1.42,1.42c-.38.38-.59.88-.59,1.42s.21,1.04.59,1.42l4.25,4.25c.39.39.9.58,1.41.58s1.02-.19,1.42-.58l1.42-1.42c.78-.78.78-2.05,0-2.83Z"/>
  <path class="cls-2" d="m17,11c-3.86,0-7,3.14-7,7,0-3.86-3.14-7-7-7,3.86,0,7-3.14,7-7,0,3.86,3.14,7,7,7Z"/>
  <path class="cls-2" d="m27,21c-2.76,0-5,2.24-5,5,0-2.76-2.24-5-5-5,2.76,0,5-2.24,5-5,0,2.76,2.24,5,5,5Z"/>
  <path class="cls-5" d="m42.01,39.02c-2.82,0-5.64-1.07-7.79-3.22-2.08-2.08-3.23-4.84-3.23-7.79s1.15-5.71,3.23-7.79c4.29-4.29,11.28-4.29,15.57,0h0c2.08,2.08,3.23,4.84,3.23,7.79s-1.15,5.71-3.23,7.79c-2.15,2.15-4.97,3.22-7.79,3.22Zm0-20.01c-2.31,0-4.61.88-6.37,2.63s-2.64,3.96-2.64,6.37.94,4.67,2.64,6.37c3.51,3.51,9.23,3.51,12.74,0,1.7-1.7,2.64-3.96,2.64-6.37s-.94-4.67-2.64-6.37-4.06-2.63-6.37-2.63Z"/>
</svg>