<?xml version="1.0" encoding="UTF-8"?>
<svg id="Dental_Chair" data-name="Dental Chair" xmlns="http://www.w3.org/2000/svg" viewBox="0 0 64 64">
  <defs>
    <style>
      .cls-1 {
        fill: #168ca6;
      }

      .cls-2 {
        fill: #c1e5f1;
      }

      .cls-3 {
        fill: #bf7246;
      }

      .cls-4 {
        fill: #d9aa90;
      }
    </style>
  </defs>
  <path class="cls-1" d="m51,43c-.55,0-1-.45-1-1V11.1c0-1.63-.63-3.16-1.79-4.31s-2.68-1.79-4.31-1.79c-1.35,0-2.63.43-3.7,1.25l-5.8,4.43c-.44.33-1.06.25-1.4-.19-.33-.44-.25-1.07.19-1.4l5.8-4.43c1.42-1.09,3.12-1.67,4.92-1.67,2.16,0,4.2.84,5.73,2.37,1.53,1.53,2.37,3.56,2.37,5.73v30.9c0,.55-.45,1-1,1Z"/>
  <path class="cls-3" d="m5.58,18l5.04,11.97,15.11,11.97,19.15,1,14.11,10.97-.82,1.22c-.65.96-1.98,1.18-2.91.47l-11.39-8.67-17.9-.93c-.81-.04-1.59-.33-2.24-.81l-15.23-11.53c-.59-.45-1.05-1.05-1.31-1.74l-4.05-10.42c-.34-.87-.02-1.86.76-2.38l1.68-1.11Z"/>
  <path class="cls-4" d="m14.07,23.83l-2.74-5.42c-.44-.87-1.33-1.41-2.31-1.41-.28,0-.55.04-.82.13l-2.63.87,5.04,11.97,2.73-2.7c.2-.19.36-.42.48-.66l.24-.48c.36-.72.36-1.57,0-2.29Z"/>
  <path class="cls-4" d="m60.02,48.15l-11.37-8.84c-1.14-.89-2.54-1.41-3.99-1.48l-15.93-.83c-.64-.03-1.26-.27-1.76-.67l-7.74-6.27c-1.61-1.3-3.77-1.69-5.74-1.05l-2.88.95,15.11,11.97,19.15,1,14.11,10.97,1.59-2.35c.28-.42.43-.9.43-1.4,0-.78-.36-1.51-.98-1.99Z"/>
  <path class="cls-2" d="m26,57h16c2.21,0,4,1.79,4,4h-24c0-2.21,1.79-4,4-4Z"/>
  <polygon class="cls-1" points="30 46.19 30 57 38 57 38 46.61 30 46.19"/>
  <path class="cls-2" d="m35.45,13.34c.2,1.56-.19,3.02-.97,4.2-.35.53-1.1.62-1.55.17l-7.13-7.13c-.45-.45-.36-1.2.17-1.55,1.17-.78,2.64-1.17,4.2-.97,2.73.34,4.95,2.57,5.29,5.29Z"/>
  <rect class="cls-2" x="25" y="25" width="18" height="4" rx="1" ry="1"/>
  <polyline class="cls-1" points="37 37.43 37 29 31 29 31 37.12"/>
</svg>