<?xml version="1.0" encoding="UTF-8"?>
<svg id="Dental_Xray" data-name="Dental Xray" xmlns="http://www.w3.org/2000/svg" viewBox="0 0 64 64">
  <defs>
    <style>
      .cls-1 {
        fill: #fff;
      }

      .cls-2 {
        fill: #168ca6;
      }

      .cls-3 {
        fill: #c1e5f1;
      }

      .cls-4 {
        fill: #d9aa90;
      }
    </style>
  </defs>
  <path class="cls-3" d="m44,4c-7,0-5,3-12,3s-5-3-12-3c-6,0-13,6-13,15s7,10,7,19c0,12,4,22,7,22,4,0,2-23,11-23s7,23,11,23c3,0,7-10,7-22,0-9,7-10,7-19s-7-15-13-15Z"/>
  <path class="cls-2" d="m53,19c0,3.24-1.17,4.9-2.78,7.21-1.11,1.58-2.37,3.39-3.23,5.79h-29.98c-.86-2.4-2.12-4.21-3.23-5.79-1.61-2.31-2.78-3.97-2.78-7.21,0-6.82,5.24-11,9-11,2.39,0,2.98.35,3.94.93,1.82,1.09,3.8,2.07,8.06,2.07s6.24-.98,8.06-2.07c.96-.58,1.55-.93,3.94-.93,3.76,0,9,4.18,9,11Z"/>
  <path class="cls-1" d="m46.83,16.45c-.31-.46-.93-.58-1.39-.28-2.21,1.47-3.88,3.43-4.71,4.5-2.05-1.55-.98-3.93-.84-4.22.24-.49.04-1.09-.45-1.34-.49-.25-1.09-.05-1.34.45-.77,1.53-1.3,4.72,1.47,6.74-1.13,1.77-3.19,5.87-1.51,10.08.16.39.53.63.93.63.12,0,.25-.02.37-.07.51-.21.76-.79.56-1.3-1.75-4.39,1.82-8.96,1.85-9.01,0,0,0-.02.01-.02.01-.02.03-.03.04-.04.02-.03,1.93-2.86,4.72-4.72.46-.31.58-.93.28-1.39Z"/>
  <path class="cls-1" d="m28.83,15.45c-.3-.45-.9-.57-1.35-.28-.46.29-.6.9-.32,1.37.01.02,1.23,2.24-2.07,6.73-2.89-5.03-6.59-6.16-6.81-6.22-.52-.15-1.08.15-1.23.68-.16.53.15,1.08.67,1.24.26.08,6.44,2.06,8.29,13.2.08.49.5.84.99.84.05,0,.11,0,.17-.01.54-.09.91-.61.82-1.15-.44-2.63-1.11-4.8-1.9-6.6,4.9-6.13,2.99-9.43,2.75-9.79Z"/>
  <path class="cls-4" d="m61,33H3c-.55,0-1-.45-1-1s.45-1,1-1h58c.55,0,1,.45,1,1s-.45,1-1,1Z"/>
</svg>