<?xml version="1.0" encoding="UTF-8"?>
<svg id="Dental_Drill" data-name="Dental Drill" xmlns="http://www.w3.org/2000/svg" viewBox="0 0 64 64">
  <defs>
    <style>
      .cls-1 {
        fill: #168ca6;
      }

      .cls-2 {
        fill: #c1e5f1;
      }

      .cls-3 {
        fill: #bf7246;
      }

      .cls-4 {
        fill: #d9aa90;
      }
    </style>
  </defs>
  <path class="cls-2" d="m35.12,21c-5.32,0-3.8,2.14-9.12,2.14s-3.8-2.14-9.12-2.14c-4.56,0-9.88,4.29-9.88,10.71s5.32,7.14,5.32,13.57c0,8.57,3.04,15.71,5.32,15.71,3.04,0,1.52-16.43,8.36-16.43s5.32,16.43,8.36,16.43c2.28,0,5.32-7.14,5.32-15.71,0-6.43,5.32-7.14,5.32-13.57s-5.32-10.71-9.88-10.71Z"/>
  <path class="cls-1" d="m26,30.14c-1.22,0-2.26-.09-3.19-.27-.54-.11-.9-.63-.79-1.17.11-.54.63-.9,1.17-.79.8.16,1.72.23,2.81.23s2.01-.08,2.81-.23c.54-.11,1.07.25,1.17.79.11.54-.25,1.07-.79,1.17-.93.18-1.97.27-3.19.27Z"/>
  <path class="cls-4" d="m26,25c-.55,0-1-.45-1-1v-7c0-.55.45-1,1-1s1,.45,1,1v7c0,.55-.45,1-1,1Z"/>
  <path class="cls-3" d="m23,13h6v2c0,1.1-.9,2-2,2h-2c-1.1,0-2-.9-2-2v-2h0Z"/>
  <path class="cls-4" d="m23,3h6c1.1,0,2,.9,2,2v7c0,.55-.45,1-1,1h-8c-.55,0-1-.45-1-1v-7c0-1.1.9-2,2-2Z"/>
  <path class="cls-3" d="m31,5v4l5.92,1.69c.71.2,1.45.31,2.2.31h15.88c1.1,0,2-.9,2-2v-2c0-1.1-.9-2-2-2h-24Z"/>
  <rect class="cls-4" x="45" y="5" width="4" height="6"/>
</svg>