<?xml version="1.0" encoding="UTF-8"?>
<svg id="Dental_Floss" data-name="Dental Floss" xmlns="http://www.w3.org/2000/svg" viewBox="0 0 64 64">
  <defs>
    <style>
      .cls-1 {
        fill: #fff;
      }

      .cls-2 {
        fill: #168ca6;
      }

      .cls-3 {
        fill: #c1e5f1;
      }
    </style>
  </defs>
  <path class="cls-2" d="m14,23h36c1.1,0,2,.9,2,2v30c0,3.31-2.69,6-6,6h-28c-3.31,0-6-2.69-6-6v-30c0-1.1.9-2,2-2Z"/>
  <path class="cls-3" d="m51.96,9.15l-1.1-3.92c-.45-1.63-2.12-2.57-3.73-2.11L14.2,12.56c-1.61.46-2.54,2.15-2.08,3.78l1.1,3.92c.15.54.71.86,1.24.7l36.81-10.55c.54-.15.85-.72.69-1.26Z"/>
  <circle class="cls-1" cx="32" cy="42" r="12"/>
  <path class="cls-2" d="m16,17h0c1.1,0,2,.9,2,2v4h-4v-4c0-1.1.9-2,2-2Z"/>
  <path class="cls-3" d="m34.88,36c-1.68,0-1.2.64-2.88.64s-1.2-.64-2.88-.64c-1.44,0-3.12,1.29-3.12,3.21s1.68,2.14,1.68,4.07c0,2.57.96,4.71,1.68,4.71.96,0,.48-4.93,2.64-4.93s1.68,4.93,2.64,4.93c.72,0,1.68-2.14,1.68-4.71,0-1.93,1.68-2.14,1.68-4.07s-1.68-3.21-3.12-3.21Z"/>
</svg>