<?xml version="1.0" encoding="UTF-8"?>
<svg id="Gum_Care" data-name="Gum Care" xmlns="http://www.w3.org/2000/svg" viewBox="0 0 64 64">
  <defs>
    <style>
      .cls-1 {
        fill: #c1e5f1;
      }

      .cls-2 {
        fill: #bf7246;
      }

      .cls-3 {
        fill: #d9aa90;
      }
    </style>
  </defs>
  <path class="cls-2" d="m52.92,24.17c-.51.83-1.03,1.54-1.48,2.15-1.03,1.4-1.2,1.69-1.2,2.54,0,8.09-2.87,20.14-10.76,20.14-4.95,0-6.65-4.19-7.48-7.8-.83,3.61-2.53,7.8-7.48,7.8-7.89,0-10.76-12.05-10.76-20.14,0-.85-.17-1.14-1.2-2.54-.45-.61-.97-1.32-1.48-2.15.87-.74,1.98-1.17,3.17-1.17h35.5c1.19,0,2.3.43,3.17,1.17Z"/>
  <path class="cls-1" d="m40.16,7c-4.76,0-3.4,1.93-8.16,1.93s-3.4-1.93-8.16-1.93c-4.08,0-8.84,3.86-8.84,9.64s4.76,6.43,4.76,12.21c0,7.71,2.72,14.14,4.76,14.14,2.72,0,1.36-14.79,7.48-14.79s4.76,14.79,7.48,14.79c2.04,0,4.76-6.43,4.76-14.14,0-5.79,4.76-6.43,4.76-12.21s-4.76-9.64-8.84-9.64Z"/>
  <path class="cls-3" d="m61,35.34v17.66c0,2.21-1.79,4-4,4H7c-2.21,0-4-1.79-4-4v-17.66c0-2.03,1.25-3.86,3.14-4.6,1.26-.49,2.21-1.55,2.74-2.8l.84-1.95c.31-.72.78-1.34,1.36-1.82.51.83,1.03,1.54,1.48,2.15,1.03,1.4,1.2,1.69,1.2,2.54,0,8.09,2.87,20.14,10.76,20.14,4.95,0,6.65-4.19,7.48-7.8.83,3.61,2.53,7.8,7.48,7.8,7.89,0,10.76-12.05,10.76-20.14,0-.85.17-1.14,1.2-2.54.45-.61.97-1.32,1.48-2.15.58.48,1.05,1.1,1.36,1.82l.84,1.95c.53,1.25,1.48,2.31,2.74,2.8,1.89.74,3.14,2.57,3.14,4.6Z"/>
  <path class="cls-1" d="m54,21c-.08,0-.16,0-.24-.03-.54-.13-.86-.68-.73-1.21l1-4c.13-.54.68-.86,1.21-.73.54.13.86.68.73,1.21l-1,4c-.11.46-.52.76-.97.76Z"/>
  <path class="cls-1" d="m58,23c-.26,0-.51-.1-.71-.29-.39-.39-.39-1.02,0-1.41l3-3c.39-.39,1.02-.39,1.41,0s.39,1.02,0,1.41l-3,3c-.2.2-.45.29-.71.29Z"/>
  <path class="cls-1" d="m10,21c-.45,0-.86-.3-.97-.76l-1-4c-.13-.54.19-1.08.73-1.21.53-.13,1.08.19,1.21.73l1,4c.13.54-.19,1.08-.73,1.21-.08.02-.16.03-.24.03Z"/>
  <path class="cls-1" d="m6,23c-.26,0-.51-.1-.71-.29l-3-3c-.39-.39-.39-1.02,0-1.41s1.02-.39,1.41,0l3,3c.39.39.39,1.02,0,1.41-.2.2-.45.29-.71.29Z"/>
</svg>