<?xml version="1.0" encoding="UTF-8"?>
<svg id="Implant" xmlns="http://www.w3.org/2000/svg" viewBox="0 0 64 64">
  <defs>
    <style>
      .cls-1 {
        fill: #168ca6;
      }

      .cls-2 {
        fill: #c1e5f1;
      }

      .cls-3 {
        fill: #d9aa90;
      }
    </style>
  </defs>
  <path class="cls-2" d="m52,14.79c0,5.02-2.83,6.87-4.46,10.05-.68,1.33-2.05,2.16-3.55,2.16h-23.99c-1.49,0-2.86-.83-3.55-2.16-1.63-3.18-4.46-5.03-4.46-10.05,0-7.08,5.6-11.79,10.4-11.79,5.6,0,4,2.36,9.6,2.36s4-2.36,9.6-2.36c4.8,0,10.4,4.71,10.4,11.79Z"/>
  <path class="cls-1" d="m41.44,31h-18.88c-.92,0-1.72-.62-1.94-1.51l-.62-2.49h24l-.62,2.49c-.22.89-1.02,1.51-1.94,1.51Z"/>
  <path class="cls-2" d="m35.28,51h-6.56c-.99,0-1.83-.72-1.98-1.7l-2.74-18.3h16l-2.74,18.3c-.15.98-.99,1.7-1.98,1.7Z"/>
  <path class="cls-1" d="m42,36h-20c-.55,0-1-.45-1-1s.45-1,1-1h20c.55,0,1,.45,1,1s-.45,1-1,1Z"/>
  <path class="cls-1" d="m41,41h-18c-.55,0-1-.45-1-1s.45-1,1-1h18c.55,0,1,.45,1,1s-.45,1-1,1Z"/>
  <path class="cls-1" d="m40,46h-16c-.55,0-1-.45-1-1s.45-1,1-1h16c.55,0,1,.45,1,1s-.45,1-1,1Z"/>
  <path class="cls-3" d="m61,42.02c0-1.76-1.49-3.16-3.24-3.01-4.46.37-7.54,1.47-9.56,2.54-1.98,1.04-3.2,3.1-3.2,5.34v2.05c0,3.33-2.69,6.03-6,6.03h-14c-3.31,0-6-2.7-6-6.03v-2.05c0-2.24-1.23-4.3-3.2-5.34-2.02-1.06-5.1-2.17-9.56-2.54-1.74-.14-3.24,1.25-3.24,3.01v14.96c0,2.22,1.79,4.02,4,4.02h50c2.21,0,4-1.8,4-4.02v-14.96Z"/>
</svg>