<?xml version="1.0" encoding="UTF-8"?>
<svg id="Molar" xmlns="http://www.w3.org/2000/svg" viewBox="0 0 64 64">
  <defs>
    <style>
      .cls-1 {
        fill: #168ca6;
      }

      .cls-2 {
        fill: #c1e5f1;
      }

      .cls-3 {
        fill: #d9aa90;
      }
    </style>
  </defs>
  <path class="cls-3" d="m32,31c-9.33,0-17.71,1.97-23.45,5.09-.96.52-1.55,1.54-1.55,2.64v19.28c0,1.66,1.34,3,3,3h44c1.66,0,3-1.34,3-3v-19.28c0-1.1-.59-2.11-1.55-2.64-5.73-3.12-14.12-5.09-23.45-5.09Z"/>
  <path class="cls-1" d="m27,33c0,12.15,2.24,22,5,22s5-9.85,5-22h-10Z"/>
  <path class="cls-2" d="m43.04,3c-6.44,0-4.6,2.79-11.04,2.79s-4.6-2.79-11.04-2.79c-5.52,0-11.96,5.57-11.96,13.93s6.44,9.29,6.44,17.64c0,11.14,3.68,20.43,6.44,20.43,3.68,0,1.84-21.36,10.12-21.36s6.44,21.36,10.12,21.36c2.76,0,6.44-9.29,6.44-20.43,0-8.36,6.44-9.29,6.44-17.64s-6.44-13.93-11.96-13.93Z"/>
  <path class="cls-1" d="m14,17.93c-.55,0-1-.45-1-1,0-6.15,4.64-9.93,7.96-9.93.55,0,1,.45,1,1s-.45,1-1,1c-2.37,0-5.96,3.16-5.96,7.93,0,.55-.45,1-1,1Z"/>
</svg>