<?xml version="1.0" encoding="UTF-8"?>
<svg id="Mouthwash" xmlns="http://www.w3.org/2000/svg" viewBox="0 0 64 64">
  <defs>
    <style>
      .cls-1 {
        fill: #fff;
      }

      .cls-2 {
        fill: #168ca6;
      }

      .cls-3 {
        fill: #c1e5f1;
      }
    </style>
  </defs>
  <path class="cls-3" d="m50,25.21c0,1.16-.38,2.29-1.07,3.22l-.43.57H15.5l-.43-.57c-.69-.93-1.07-2.06-1.07-3.22,0-1.98,1.09-3.79,2.83-4.73l10.17-5.48h10l10.17,5.48c1.74.94,2.83,2.75,2.83,4.73Z"/>
  <path class="cls-2" d="m48.07,50.43l.43.57H15.5l.43-.57c.69-.93,1.07-2.06,1.07-3.22v-14.42c0-1.16-.38-2.29-1.07-3.22l-.43-.57h33l-.43.57c-.69.93-1.07,2.06-1.07,3.22v14.42c0,1.16.38,2.29,1.07,3.22Z"/>
  <path class="cls-3" d="m50,54.79v.84c0,2.96-2.41,5.37-5.37,5.37h-25.26c-2.96,0-5.37-2.41-5.37-5.37v-.84c0-1.16.38-2.29,1.07-3.22l.43-.57h33l.43.57c.69.93,1.07,2.06,1.07,3.22Z"/>
  <path class="cls-3" d="m27,3h10c1.66,0,3,1.34,3,3v4c0,.55-.45,1-1,1h-14c-.55,0-1-.45-1-1v-4c0-1.66,1.34-3,3-3Z"/>
  <rect class="cls-2" x="27" y="11" width="10" height="4"/>
  <path class="cls-2" d="m31,7c0,.55.45,1,1,1s1-.45,1-1V3h-2v4Z"/>
  <path class="cls-2" d="m35,3v4c0,.55.45,1,1,1s1-.45,1-1V3h-2Z"/>
  <path class="cls-2" d="m27,7c0,.55.45,1,1,1s1-.45,1-1V3h-2v4Z"/>
  <path class="cls-1" d="m35.36,33c-1.96,0-1.4.75-3.36.75s-1.4-.75-3.36-.75c-1.68,0-3.64,1.5-3.64,3.75s1.96,2.5,1.96,4.75c0,3,1.12,5.5,1.96,5.5,1.12,0,.56-5.75,3.08-5.75s1.96,5.75,3.08,5.75c.84,0,1.96-2.5,1.96-5.5,0-2.25,1.96-2.5,1.96-4.75s-1.96-3.75-3.64-3.75Z"/>
</svg>