<?xml version="1.0" encoding="UTF-8"?>
<svg id="Mouthguard" xmlns="http://www.w3.org/2000/svg" viewBox="0 0 64 64">
  <defs>
    <style>
      .cls-1 {
        fill: #168ca6;
      }

      .cls-2 {
        fill: #c1e5f1;
      }

      .cls-3 {
        fill: #a1d7e5;
      }
    </style>
  </defs>
  <path class="cls-2" d="m57,5v21c0,17-10,20-17,23-7,3-8,7-8,7,0,0-1-4-8-7-7-3-17-6-17-23V5c0-1.1.9-2,2-2h10c1.1,0,2,.9,2,2v13c0,6.14,5.04,11.11,11.21,11,6.05-.11,10.79-5.31,10.79-11.36V5c0-1.1.9-2,2-2h10c1.1,0,2,.9,2,2Z"/>
  <path class="cls-1" d="m57,26v10c0,13.65-10.93,24.74-24.52,25-14.01.26-25.48-11.55-25.48-25.56v-9.44c0,17,10,20,17,23,7,3,8,7,8,7,0,0,1-4,8-7,7-3,17-6,17-23Z"/>
  <path class="cls-3" d="m53,7v16c0,11.6-9.4,21-21,21h0c-11.6,0-21-9.4-21-21V7h6v12c0,8.28,6.72,15,15,15h0c8.28,0,15-6.72,15-15V7h6Z"/>
</svg>