<?xml version="1.0" encoding="UTF-8"?>
<svg id="Oral_Hygiene" data-name="Oral Hygiene" xmlns="http://www.w3.org/2000/svg" viewBox="0 0 64 64">
  <defs>
    <style>
      .cls-1 {
        fill: #fff;
      }

      .cls-2 {
        fill: #168ca6;
      }

      .cls-3 {
        fill: #c1e5f1;
      }

      .cls-4 {
        fill: #a1d7e5;
      }

      .cls-5 {
        fill: #bf7246;
      }

      .cls-6 {
        fill: #d9aa90;
      }
    </style>
  </defs>
  <rect class="cls-6" x="39" y="3" width="4" height="4"/>
  <rect class="cls-5" x="43" y="3" width="4" height="4"/>
  <rect class="cls-6" x="47" y="3" width="4" height="4"/>
  <path class="cls-5" d="m51,3h3c.55,0,1,.45,1,1v3h-4V3h0Z"/>
  <rect class="cls-5" x="35" y="3" width="4" height="4"/>
  <rect class="cls-6" x="31" y="3" width="4" height="4"/>
  <path class="cls-5" d="m28,3h3v4h-4v-3c0-.55.45-1,1-1Z"/>
  <polygon class="cls-3" points="55 7 49.65 48 32.35 48 27 7 55 7"/>
  <polygon class="cls-6" points="49.65 48 49 53 33 53 32.35 48 49.65 48"/>
  <path class="cls-5" d="m33,53h16v5c0,1.66-1.34,3-3,3h-10c-1.66,0-3-1.34-3-3v-5h0Z"/>
  <path class="cls-1" d="m47,14h-12c-.55,0-1-.45-1-1s.45-1,1-1h12c.55,0,1,.45,1,1s-.45,1-1,1Z"/>
  <path class="cls-1" d="m49,18h-16c-.55,0-1-.45-1-1s.45-1,1-1h16c.55,0,1,.45,1,1s-.45,1-1,1Z"/>
  <path class="cls-2" d="m43.88,26c-1.68,0-1.2.64-2.88.64s-1.2-.64-2.88-.64c-1.44,0-3.12,1.29-3.12,3.21s1.68,2.14,1.68,4.07c0,2.57.96,4.71,1.68,4.71.96,0,.48-4.93,2.64-4.93s1.68,4.93,2.64,4.93c.72,0,1.68-2.14,1.68-4.71,0-1.93,1.68-2.14,1.68-4.07s-1.68-3.21-3.12-3.21Z"/>
  <path class="cls-2" d="m17,4v22l-2.59,7.77c-.27.82-.41,1.67-.41,2.53v23.7c0,.55.45,1,1,1h3c.55,0,1-.45,1-1v-25l1.76-7.04c.16-.63.24-1.29.24-1.94V4c0-.55-.45-1-1-1h-2c-.55,0-1,.45-1,1Z"/>
  <path class="cls-4" d="m10,5h7v4h-8v-3c0-.55.45-1,1-1Z"/>
  <rect class="cls-3" x="9" y="9" width="8" height="4"/>
  <rect class="cls-4" x="9" y="13" width="8" height="4"/>
  <path class="cls-3" d="m9,17h8v4h-7c-.55,0-1-.45-1-1v-3h0Z"/>
</svg>