<?xml version="1.0" encoding="UTF-8"?>
<svg id="Plaque" xmlns="http://www.w3.org/2000/svg" viewBox="0 0 64 64">
  <defs>
    <style>
      .cls-1 {
        fill: #fff;
      }

      .cls-2 {
        fill: #168ca6;
      }

      .cls-3 {
        fill: #c1e5f1;
      }
    </style>
  </defs>
  <path class="cls-3" d="m57,19c0,4.69-1.9,7.21-3.72,9.82-9-1.26-7.7-8.82-12.28-8.82-4,0-4,5-11,5s-6-6-13-6c-4.34,0-7.14,3.45-8.64,6.08-.8-1.63-1.36-3.53-1.36-6.08,0-9,7-15,13-15,7,0,5,3,12,3s5-3,12-3c6,0,13,6,13,15Z"/>
  <path class="cls-2" d="m53.28,28.82c-1.68,2.4-3.28,4.87-3.28,9.18,0,12-4,22-7,22-4,0-2-23-11-23s-7,23-11,23c-3,0-7-10-7-22,0-6.45-3.6-8.79-5.64-12.92,1.5-2.63,4.3-6.08,8.64-6.08,7,0,6,6,13,6s7-5,11-5c4.58,0,3.28,7.56,12.28,8.82Z"/>
  <circle class="cls-1" cx="46" cy="32" r="1"/>
  <circle class="cls-1" cx="40" cy="26" r="1"/>
  <circle class="cls-1" cx="41" cy="32" r="1"/>
  <circle class="cls-1" cx="36" cy="33" r="1"/>
  <circle class="cls-1" cx="41" cy="38" r="1"/>
  <circle class="cls-1" cx="46" cy="40" r="1"/>
  <circle class="cls-1" cx="43" cy="45" r="1"/>
  <circle class="cls-1" cx="45" cy="51" r="1"/>
  <circle class="cls-1" cx="19" cy="51" r="1"/>
  <circle class="cls-1" cx="21" cy="46" r="1"/>
  <circle class="cls-1" cx="18" cy="41" r="1"/>
  <circle class="cls-1" cx="23" cy="38" r="1"/>
  <circle class="cls-1" cx="17" cy="31" r="1"/>
  <circle class="cls-1" cx="14" cy="25" r="1"/>
  <circle class="cls-1" cx="20" cy="25" r="1"/>
  <circle class="cls-1" cx="22.53" cy="32" r="1"/>
  <circle class="cls-1" cx="27" cy="29" r="1"/>
  <circle class="cls-1" cx="33" cy="29" r="1"/>
  <circle class="cls-1" cx="29" cy="34" r="1"/>
</svg>