<?xml version="1.0" encoding="UTF-8"?>
<svg id="Retainer" xmlns="http://www.w3.org/2000/svg" viewBox="0 0 64 64">
  <defs>
    <style>
      .cls-1 {
        fill: #168ca6;
      }

      .cls-2 {
        fill: #c1e5f1;
      }

      .cls-3 {
        fill: #bf7246;
      }
    </style>
  </defs>
  <path class="cls-1" d="m54.3,9.88c-6.09-1.8-13.86-2.88-22.3-2.88s-16.21,1.08-22.3,2.88c-3.39,1-5.7,4.13-5.7,7.67v3.45c0,2.21,1.79,4,4,4h48c2.21,0,4-1.79,4-4v-3.45c0-3.53-2.31-6.66-5.7-7.67Z"/>
  <path class="cls-2" d="m37,17h0c1.66,0,3,1.34,3,3v7c0,1.1-.9,2-2,2h-4c-1.1,0-2-.9-2-2v-5c0-2.76,2.24-5,5-5Z"/>
  <path class="cls-2" d="m45,18h0c1.66,0,3,1.34,3,3v6c0,1.1-.9,2-2,2h-4c-1.1,0-2-.9-2-2v-4c0-2.76,2.24-5,5-5Z"/>
  <path class="cls-2" d="m53,19h0c1.66,0,3,1.34,3,3v5c0,1.1-.9,2-2,2h-4c-1.1,0-2-.9-2-2v-3c0-2.76,2.24-5,5-5Z"/>
  <path class="cls-2" d="m26,17h4c1.1,0,2,.9,2,2v7c0,1.66-1.34,3-3,3h0c-2.76,0-5-2.24-5-5v-5c0-1.1.9-2,2-2Z" transform="translate(56 46) rotate(-180)"/>
  <path class="cls-2" d="m18,18h4c1.1,0,2,.9,2,2v6c0,1.66-1.34,3-3,3h0c-2.76,0-5-2.24-5-5v-4c0-1.1.9-2,2-2Z" transform="translate(40 47) rotate(-180)"/>
  <path class="cls-2" d="m10,19h4c1.1,0,2,.9,2,2v5c0,1.66-1.34,3-3,3h0c-2.76,0-5-2.24-5-5v-3c0-1.1.9-2,2-2Z" transform="translate(24 48) rotate(-180)"/>
  <path class="cls-2" d="m34,35h4c1.1,0,2,.9,2,2v7c0,1.66-1.34,3-3,3h0c-2.76,0-5-2.24-5-5v-5c0-1.1.9-2,2-2Z"/>
  <path class="cls-2" d="m42,35h4c1.1,0,2,.9,2,2v6c0,1.66-1.34,3-3,3h0c-2.76,0-5-2.24-5-5v-4c0-1.1.9-2,2-2Z"/>
  <path class="cls-2" d="m50,35h4c1.1,0,2,.9,2,2v5c0,1.66-1.34,3-3,3h0c-2.76,0-5-2.24-5-5v-3c0-1.1.9-2,2-2Z"/>
  <path class="cls-2" d="m29,35h0c1.66,0,3,1.34,3,3v7c0,1.1-.9,2-2,2h-4c-1.1,0-2-.9-2-2v-5c0-2.76,2.24-5,5-5Z" transform="translate(56 82) rotate(180)"/>
  <path class="cls-2" d="m21,35h0c1.66,0,3,1.34,3,3v6c0,1.1-.9,2-2,2h-4c-1.1,0-2-.9-2-2v-4c0-2.76,2.24-5,5-5Z" transform="translate(40 81) rotate(180)"/>
  <path class="cls-2" d="m13,35h0c1.66,0,3,1.34,3,3v5c0,1.1-.9,2-2,2h-4c-1.1,0-2-.9-2-2v-3c0-2.76,2.24-5,5-5Z" transform="translate(24 80) rotate(180)"/>
  <path class="cls-3" d="m38.71,49.29c-.39-.39-1.02-.39-1.41,0l-4.29,4.29v-11.59c0-.55-.45-1-1-1s-1,.45-1,1v11.59l-4.29-4.29c-.39-.39-1.02-.39-1.41,0s-.39,1.02,0,1.41l6,6c.2.2.45.29.71.29s.51-.1.71-.29l6-6c.39-.39.39-1.02,0-1.41Z"/>
</svg>