<?xml version="1.0" encoding="UTF-8"?>
<svg id="Tongue_Scraper" data-name="Tongue Scraper" xmlns="http://www.w3.org/2000/svg" viewBox="0 0 64 64">
  <defs>
    <style>
      .cls-1 {
        fill: #fff;
      }

      .cls-2 {
        fill: #168ca6;
      }

      .cls-3 {
        fill: #c1e5f1;
      }
    </style>
  </defs>
  <path class="cls-2" d="m54.8,19.02c-6.2,6.2-13.43,9.03-16.14,6.32-2.71-2.71.11-9.94,6.32-16.14l-2.81-2.81c-6.07,6.07-9.76,12.97-10.14,18.09-.17,2.32-1.22,4.49-2.86,6.13l-3.14,3.14,4.21,4.21,3.14-3.14c1.65-1.65,3.81-2.69,6.13-2.86,5.12-.38,12.02-4.06,18.09-10.14l-2.81-2.81Z"/>
  <path class="cls-3" d="m60.97,25.7c-.8-4.7-3.82-9.95-8.27-14.4s-9.7-7.47-14.4-8.27c-1.08-.18-2.11.54-2.29,1.62-.19,1.08.54,2.11,1.62,2.29,3.85.66,8.43,3.34,12.26,7.17s6.51,8.41,7.17,12.26c.07.42.27.79.55,1.07.44.44,1.08.67,1.74.55,1.08-.18,1.81-1.21,1.62-2.29Z"/>
  <rect class="cls-3" x="1.04" y="42.12" width="31.75" height="9.92" rx="1.98" ry="1.98" transform="translate(-28.34 25.75) rotate(-45)"/>
  <rect class="cls-2" x="10.72" y="46.34" width="3.97" height="9.92" transform="translate(-32.55 24.01) rotate(-45)"/>
  <path class="cls-1" d="m22.53,42.47c-.26,0-.51-.1-.71-.29-.39-.39-.39-1.02,0-1.41l2.81-2.81c.39-.39,1.02-.39,1.41,0s.39,1.02,0,1.41l-2.81,2.81c-.2.2-.45.29-.71.29Z"/>
</svg>