<?xml version="1.0" encoding="UTF-8"?>
<svg id="Toothpaste" xmlns="http://www.w3.org/2000/svg" viewBox="0 0 64 64">
  <defs>
    <style>
      .cls-1 {
        fill: #fff;
      }

      .cls-2 {
        fill: #168ca6;
      }

      .cls-3 {
        fill: #c1e5f1;
      }

      .cls-4 {
        fill: #bf7246;
      }

      .cls-5 {
        fill: #d9aa90;
      }
    </style>
  </defs>
  <rect class="cls-5" x="30" y="3" width="4" height="4"/>
  <rect class="cls-4" x="34" y="3" width="4" height="4"/>
  <rect class="cls-5" x="38" y="3" width="4" height="4"/>
  <path class="cls-4" d="m42,3h3c.55,0,1,.45,1,1v3h-4V3h0Z"/>
  <rect class="cls-4" x="26" y="3" width="4" height="4"/>
  <rect class="cls-5" x="22" y="3" width="4" height="4"/>
  <path class="cls-4" d="m19,3h3v4h-4v-3c0-.55.45-1,1-1Z"/>
  <polygon class="cls-3" points="46 7 40.65 48 23.35 48 18 7 46 7"/>
  <polygon class="cls-5" points="40.65 48 40 53 24 53 23.35 48 40.65 48"/>
  <path class="cls-4" d="m24,53h16v5c0,1.66-1.34,3-3,3h-10c-1.66,0-3-1.34-3-3v-5h0Z"/>
  <path class="cls-1" d="m38,14h-12c-.55,0-1-.45-1-1s.45-1,1-1h12c.55,0,1,.45,1,1s-.45,1-1,1Z"/>
  <path class="cls-1" d="m40,18h-16c-.55,0-1-.45-1-1s.45-1,1-1h16c.55,0,1,.45,1,1s-.45,1-1,1Z"/>
  <path class="cls-2" d="m34.88,26c-1.68,0-1.2.64-2.88.64s-1.2-.64-2.88-.64c-1.44,0-3.12,1.29-3.12,3.21s1.68,2.14,1.68,4.07c0,2.57.96,4.71,1.68,4.71.96,0,.48-4.93,2.64-4.93s1.68,4.93,2.64,4.93c.72,0,1.68-2.14,1.68-4.71,0-1.93,1.68-2.14,1.68-4.07s-1.68-3.21-3.12-3.21Z"/>
</svg>