<?xml version="1.0" encoding="UTF-8"?>
<svg id="Tooth_Decay" data-name="Tooth Decay" xmlns="http://www.w3.org/2000/svg" viewBox="0 0 64 64">
  <defs>
    <style>
      .cls-1 {
        fill: #168ca6;
      }

      .cls-2 {
        fill: #c1e5f1;
      }
    </style>
  </defs>
  <path class="cls-1" d="m21.5,7.48c-5.48,1.52-9.5,6.55-9.5,12.52,0,3.33,1.26,6.37,3.32,8.67l10.68.33,5-18-9.5-3.52Z"/>
  <path class="cls-2" d="m59,20c0,9-7,10-7,19,0,12-4,22-7,22-4,0-2-23-11-23s-7,23-11,23c-3,0-7-10-7-22,0-3.88-1.51-6.81-3-9l7-4-2-3c2-2,2-6,2-6h5l1-5-5-2,1-5c7,0,5,3,12,3s5-3,12-3c6,0,13,6,13,15Z"/>
  <path class="cls-2" d="m10,14c-.15,0-.3-.03-.45-.11l-4-2c-.49-.25-.69-.85-.45-1.34.25-.49.85-.69,1.34-.45l4,2c.49.25.69.85.45,1.34-.18.35-.53.55-.9.55Z"/>
  <path class="cls-2" d="m15,8c-.32,0-.64-.16-.83-.45l-2-3c-.31-.46-.18-1.08.28-1.39.46-.31,1.08-.18,1.39.28l2,3c.31.46.18,1.08-.28,1.39-.17.11-.36.17-.55.17Z"/>
  <path class="cls-2" d="m6,23c-.32,0-.64-.16-.83-.45-.31-.46-.18-1.08.28-1.39l3-2c.46-.31,1.08-.18,1.39.28.31.46.18,1.08-.28,1.39l-3,2c-.17.11-.36.17-.55.17Z"/>
</svg>