<?xml version="1.0" encoding="UTF-8"?>
<svg id="Tooth_Whitening" data-name="Tooth Whitening" xmlns="http://www.w3.org/2000/svg" viewBox="0 0 64 64">
  <defs>
    <style>
      .cls-1 {
        fill: #168ca6;
      }

      .cls-2 {
        fill: #c1e5f1;
      }
    </style>
  </defs>
  <path class="cls-2" d="m44,5c-7,0-5,3-12,3s-5-3-12-3c-6,0-13,6-13,15s7,10,7,19c0,12,4,22,7,22,4,0,2-23,11-23s7,23,11,23c3,0,7-10,7-22,0-9,7-10,7-19s-7-15-13-15Z"/>
  <path class="cls-1" d="m19,11c-4.42,0-8,3.58-8,8,0-4.42-3.58-8-8-8,4.42,0,8-3.58,8-8,0,4.42,3.58,8,8,8Z"/>
  <path class="cls-1" d="m48,21c-3.86,0-7,3.14-7,7,0-3.86-3.14-7-7-7,3.86,0,7-3.14,7-7,0,3.86,3.14,7,7,7Z"/>
  <path class="cls-1" d="m61,46c-3.86,0-7,3.14-7,7,0-3.86-3.14-7-7-7,3.86,0,7-3.14,7-7,0,3.86,3.14,7,7,7Z"/>
</svg>