<?xml version="1.0" encoding="UTF-8"?>
<svg id="Tooth" xmlns="http://www.w3.org/2000/svg" viewBox="0 0 64 64">
  <defs>
    <style>
      .cls-1 {
        fill: #168ca6;
      }

      .cls-2 {
        fill: #c1e5f1;
      }
    </style>
  </defs>
  <path class="cls-2" d="m44,4c-7,0-5,3-12,3s-5-3-12-3c-6,0-13,6-13,15s7,10,7,19c0,12,4,22,7,22,4,0,2-23,11-23s7,23,11,23c3,0,7-10,7-22,0-9,7-10,7-19s-7-15-13-15Z"/>
  <path class="cls-1" d="m12,20c-.55,0-1-.45-1-1,0-6.82,5.24-11,9-11,.55,0,1,.45,1,1s-.45,1-1,1c-2.92,0-7,3.42-7,9,0,.55-.45,1-1,1Z"/>
</svg>