<?xml version="1.0" encoding="UTF-8"?>
<svg id="Tooth_Extraction" data-name="Tooth Extraction" xmlns="http://www.w3.org/2000/svg" viewBox="0 0 64 64">
  <defs>
    <style>
      .cls-1 {
        fill: #168ca6;
      }

      .cls-2 {
        fill: #c1e5f1;
      }

      .cls-3 {
        fill: #d9aa90;
      }
    </style>
  </defs>
  <path class="cls-3" d="m32,34c-9.8,0-18.49,2.76-23.86,7.02-.72.57-1.14,1.44-1.14,2.36v14.61c0,1.66,1.34,3,3,3h44c1.66,0,3-1.34,3-3v-14.61c0-.92-.42-1.79-1.14-2.36-5.37-4.26-14.06-7.02-23.86-7.02Z"/>
  <path class="cls-2" d="m41.6,10c-5.6,0-4,2.36-9.6,2.36s-4-2.36-9.6-2.36c-4.8,0-10.4,4.71-10.4,11.79s5.6,7.86,5.6,14.93c0,9.43,3.2,17.29,5.6,17.29,3.2,0,1.6-18.07,8.8-18.07s5.6,18.07,8.8,18.07c2.4,0,5.6-7.86,5.6-17.29,0-7.07,5.6-7.86,5.6-14.93s-5.6-11.79-10.4-11.79Z"/>
  <path class="cls-1" d="m49,29h0s0-25,0-25c0-.55.45-1,1-1h4c.55,0,1,.45,1,1v15.29c0,4.11-2.32,7.87-6,9.71Z"/>
  <path class="cls-1" d="m15,29h0s0-25,0-25c0-.55-.45-1-1-1h-4c-.55,0-1,.45-1,1v15.29c0,4.11,2.32,7.87,6,9.71Z"/>
</svg>