<?xml version="1.0" encoding="UTF-8"?>
<svg id="Toothbrush" xmlns="http://www.w3.org/2000/svg" viewBox="0 0 64 64">
  <defs>
    <style>
      .cls-1 {
        fill: #168ca6;
      }

      .cls-2 {
        fill: #c1e5f1;
      }

      .cls-3 {
        fill: #8dc6d3;
      }

      .cls-4 {
        fill: #aad8e5;
      }
    </style>
  </defs>
  <path class="cls-1" d="m56.41,14.82c-.78-.78-2.06-.78-2.84,0l-14.21,14.13-8.53,3.63c-.94.4-1.79.98-2.52,1.69L7.74,54.74c-.98.98-.98,2.56,0,3.53.98.98,2.57.98,3.55,0l21.67-21.55,6.49-2.93c.88-.4,1.68-.95,2.36-1.62l14.6-14.52c.78-.78.78-2.05,0-2.83Z"/>
  <polygon class="cls-3" points="38.65 19.77 35.8 22.59 40.78 27.54 43.62 24.71 38.65 19.77"/>
  <polygon class="cls-4" points="41.49 16.94 38.65 19.77 43.62 24.71 46.46 21.89 41.49 16.94"/>
  <polygon class="cls-3" points="44.33 14.12 41.49 16.94 46.46 21.89 49.31 19.06 44.33 14.12"/>
  <polygon class="cls-4" points="47.17 11.29 44.33 14.12 49.31 19.06 52.15 16.24 47.17 11.29"/>
  <path class="cls-2" d="m46.49,6.38c-1.5-1.58-3.67-2.07-5.72-.03,1.57,1.56,1.57,4.09,0,5.65l-4.97,4.94c-1.57,1.56-1.57,4.09,0,5.65l10.5-10.44c1.55-1.54,1.69-4.19.19-5.77Z"/>
</svg>