<?xml version="1.0" encoding="UTF-8"?>
<svg id="Wisdom_Tooth" data-name="Wisdom Tooth" xmlns="http://www.w3.org/2000/svg" viewBox="0 0 64 64">
  <defs>
    <style>
      .cls-1 {
        fill: #168ca6;
      }

      .cls-2 {
        fill: #c1e5f1;
      }

      .cls-3 {
        fill: #bf7246;
      }

      .cls-4 {
        fill: #d9aa90;
      }
    </style>
  </defs>
  <path class="cls-3" d="m61,39v2l-12-5s-2,0-8-2-25-3-30-3-8,4-8,4v-2.83c0-.82.33-1.61.93-2.17,1.25-1.19,3.71-3,7.07-3,5,0,24,1,30,3s8,2,8,2l10.15,4.23c1.12.47,1.85,1.56,1.85,2.77Z"/>
  <path class="cls-4" d="m61,41v9c0,2.21-1.79,4-4,4H7c-2.21,0-4-1.79-4-4v-15s3-4,8-4,24,1,30,3,8,2,8,2l12,5Z"/>
  <path class="cls-2" d="m48.28,21c-3.08,0-2.2,1.18-5.28,1.18s-2.2-1.18-5.28-1.18c-2.64,0-5.72,2.36-5.72,5.89s3.08,3.93,3.08,7.46c0,4.71,1.76,8.64,3.08,8.64,1.76,0,.88-9.04,4.84-9.04s3.08,9.04,4.84,9.04c1.32,0,3.08-3.93,3.08-8.64,0-3.54,3.08-3.93,3.08-7.46s-3.08-5.89-5.72-5.89Z"/>
  <path class="cls-2" d="m27.5,20.42c-3.04-.67-2.43.68-5.47,0-3.04-.67-1.92-1.64-4.96-2.31-2.61-.58-6.16,1.07-6.94,4.56-.77,3.48,2.18,4.54,1.41,8.02-1.03,4.64-.15,8.89,1.15,9.18,1.74.38,2.85-8.71,6.76-7.84s1.07,9.57,2.8,9.95c1.3.29,3.9-3.2,4.93-7.84.77-3.48,3.9-3.2,4.67-6.68.77-3.48-1.75-6.47-4.36-7.05Z"/>
  <path class="cls-1" d="m33,16c-.55,0-1-.45-1-1v-4c0-.55.45-1,1-1s1,.45,1,1v4c0,.55-.45,1-1,1Z"/>
  <path class="cls-1" d="m38,18c-.26,0-.51-.1-.71-.29-.39-.39-.39-1.02,0-1.41l3-3c.39-.39,1.02-.39,1.41,0s.39,1.02,0,1.41l-3,3c-.2.2-.45.29-.71.29Z"/>
  <path class="cls-1" d="m28,18c-.26,0-.51-.1-.71-.29l-3-3c-.39-.39-.39-1.02,0-1.41s1.02-.39,1.41,0l3,3c.39.39.39,1.02,0,1.41-.2.2-.45.29-.71.29Z"/>
</svg>